<svg width="49" height="49" viewBox="0 0 49 49" fill="none" xmlns="http://www.w3.org/2000/svg">
<path d="M11.9438 34.9125C13.6792 33.5854 15.6188 32.5391 17.7625 31.7734C19.9063 31.0078 22.1521 30.625 24.5 30.625C26.848 30.625 29.0938 31.0078 31.2375 31.7734C33.3813 32.5391 35.3209 33.5854 37.0563 34.9125C38.2473 33.5174 39.1745 31.9351 39.8381 30.1656C40.5016 28.3962 40.8334 26.5076 40.8334 24.5C40.8334 19.9743 39.2426 16.1207 36.061 12.9391C32.8794 9.75747 29.0257 8.16667 24.5 8.16667C19.9743 8.16667 16.1207 9.75747 12.9391 12.9391C9.75751 16.1207 8.16671 19.9743 8.16671 24.5C8.16671 26.5076 8.49848 28.3962 9.16202 30.1656C9.82556 31.9351 10.7528 33.5174 11.9438 34.9125ZM24.5 26.5417C22.4924 26.5417 20.7995 25.8526 19.4214 24.4745C18.0433 23.0964 17.3542 21.4035 17.3542 19.3958C17.3542 17.3882 18.0433 15.6953 19.4214 14.3172C20.7995 12.9391 22.4924 12.25 24.5 12.25C26.5077 12.25 28.2006 12.9391 29.5787 14.3172C30.9568 15.6953 31.6459 17.3882 31.6459 19.3958C31.6459 21.4035 30.9568 23.0964 29.5787 24.4745C28.2006 25.8526 26.5077 26.5417 24.5 26.5417ZM24.5 44.9167C21.6757 44.9167 19.0216 44.3807 16.5375 43.3089C14.0535 42.237 11.8927 40.7823 10.0552 38.9448C8.21775 37.1073 6.76306 34.9465 5.69119 32.4625C4.61931 29.9785 4.08337 27.3243 4.08337 24.5C4.08337 21.6757 4.61931 19.0215 5.69119 16.5375C6.76306 14.0535 8.21775 11.8927 10.0552 10.0552C11.8927 8.21771 14.0535 6.76302 16.5375 5.69115C19.0216 4.61927 21.6757 4.08334 24.5 4.08334C27.3243 4.08334 29.9785 4.61927 32.4625 5.69115C34.9466 6.76302 37.1073 8.21771 38.9448 10.0552C40.7823 11.8927 42.237 14.0535 43.3089 16.5375C44.3808 19.0215 44.9167 21.6757 44.9167 24.5C44.9167 27.3243 44.3808 29.9785 43.3089 32.4625C42.237 34.9465 40.7823 37.1073 38.9448 38.9448C37.1073 40.7823 34.9466 42.237 32.4625 43.3089C29.9785 44.3807 27.3243 44.9167 24.5 44.9167ZM24.5 40.8333C26.3035 40.8333 28.0049 40.5696 29.6042 40.0422C31.2035 39.5148 32.6667 38.7576 33.9938 37.7708C32.6667 36.784 31.2035 36.0269 29.6042 35.4995C28.0049 34.9721 26.3035 34.7083 24.5 34.7083C22.6966 34.7083 20.9952 34.9721 19.3959 35.4995C17.7966 36.0269 16.3334 36.784 15.0063 37.7708C16.3334 38.7576 17.7966 39.5148 19.3959 40.0422C20.9952 40.5696 22.6966 40.8333 24.5 40.8333ZM24.5 22.4583C25.3848 22.4583 26.1164 22.1691 26.6948 21.5906C27.2733 21.0122 27.5625 20.2806 27.5625 19.3958C27.5625 18.5111 27.2733 17.7795 26.6948 17.201C26.1164 16.6226 25.3848 16.3333 24.5 16.3333C23.6153 16.3333 22.8837 16.6226 22.3052 17.201C21.7268 17.7795 21.4375 18.5111 21.4375 19.3958C21.4375 20.2806 21.7268 21.0122 22.3052 21.5906C22.8837 22.1691 23.6153 22.4583 24.5 22.4583Z" fill="white"/>
</svg>
