<svg width="35" height="36" viewBox="0 0 35 36" fill="none" xmlns="http://www.w3.org/2000/svg">
<path d="M26.2498 31.5H10.2082V12L20.4165 1.5L22.2394 3.375C22.4096 3.55 22.5493 3.7875 22.6587 4.0875C22.7681 4.3875 22.8228 4.675 22.8228 4.95V5.475L21.2186 12H30.6248C31.4026 12 32.0832 12.3 32.6665 12.9C33.2498 13.5 33.5415 14.2 33.5415 15V18C33.5415 18.175 33.5172 18.3625 33.4686 18.5625C33.42 18.7625 33.3714 18.95 33.3228 19.125L28.9478 29.7C28.729 30.2 28.3644 30.625 27.854 30.975C27.3436 31.325 26.8089 31.5 26.2498 31.5ZM13.1248 28.5H26.2498L30.6248 18V15H17.4998L19.4686 6.75L13.1248 13.275V28.5ZM10.2082 12V15H5.83317V28.5H10.2082V31.5H2.9165V12H10.2082Z" fill="white"/>
</svg>
