<svg width="35" height="36" viewBox="0 0 35 36" fill="none" xmlns="http://www.w3.org/2000/svg">
<path d="M26.2864 31.5H9.26038V12.3L19.3958 1.5L20.5989 2.475C20.8663 2.675 21.0425 2.9 21.1276 3.15C21.2126 3.4 21.2552 3.6875 21.2552 4.0125V4.3875L19.6145 12.3H31.3541C31.9132 12.3 32.4175 12.5312 32.8671 12.9937C33.3168 13.4562 33.5416 13.975 33.5416 14.55V17.625C33.5416 17.9 33.5112 18.2187 33.4505 18.5812C33.3897 18.9437 33.2986 19.2625 33.177 19.5375L28.9479 29.5875C28.7291 30.1125 28.3706 30.5625 27.8724 30.9375C27.3741 31.3125 26.8454 31.5 26.2864 31.5ZM7.07288 12.3V31.5H2.91663V12.3H7.07288Z" fill="white"/>
</svg>
