<svg width="102" height="102" viewBox="0 0 102 102" fill="none" xmlns="http://www.w3.org/2000/svg">
<path d="M27.625 85C21.1792 85 15.6719 82.7688 11.1031 78.3063C6.53437 73.8438 4.25 68.3896 4.25 61.9438C4.25 56.4188 5.91458 51.4958 9.24375 47.175C12.5729 42.8542 16.9292 40.0917 22.3125 38.8875C24.0833 32.3708 27.625 27.0938 32.9375 23.0563C38.25 19.0187 44.2708 17 51 17C59.2875 17 66.3177 19.8865 72.0906 25.6594C77.8635 31.4323 80.75 38.4625 80.75 46.75C85.6375 47.3167 89.6927 49.424 92.9156 53.0719C96.1385 56.7198 97.75 60.9875 97.75 65.875C97.75 71.1875 95.8906 75.7031 92.1719 79.4219C88.4531 83.1406 83.9375 85 78.625 85H55.25C52.9125 85 50.9115 84.1677 49.2469 82.5031C47.5823 80.8385 46.75 78.8375 46.75 76.5V54.6125L39.95 61.2L34 55.25L51 38.25L68 55.25L62.05 61.2L55.25 54.6125V76.5H78.625C81.6 76.5 84.1146 75.4729 86.1688 73.4188C88.2229 71.3646 89.25 68.85 89.25 65.875C89.25 62.9 88.2229 60.3854 86.1688 58.3313C84.1146 56.2771 81.6 55.25 78.625 55.25H72.25V46.75C72.25 40.8708 70.1781 35.8594 66.0344 31.7156C61.8906 27.5719 56.8792 25.5 51 25.5C45.1208 25.5 40.1094 27.5719 35.9656 31.7156C31.8219 35.8594 29.75 40.8708 29.75 46.75H27.625C23.5167 46.75 20.0104 48.2021 17.1063 51.1063C14.2021 54.0104 12.75 57.5167 12.75 61.625C12.75 65.7333 14.2021 69.2396 17.1063 72.1438C20.0104 75.0479 23.5167 76.5 27.625 76.5H38.25V85H27.625Z" fill="white"/>
</svg>
