<svg width="800" height="572" viewBox="0 0 800 572" fill="none" xmlns="http://www.w3.org/2000/svg">
<path d="M620.408 0.285645H179.592C80.5649 0.285645 0 80.8505 0 179.877V392.122C0 491.149 80.5649 571.714 179.592 571.714H620.408C719.435 571.714 800 491.149 800 392.122V179.877C800 80.8505 719.435 0.285645 620.408 0.285645ZM767.347 392.122C767.347 473.144 701.43 539.061 620.408 539.061H179.592C98.5698 539.061 32.6531 473.144 32.6531 392.122V179.877C32.6531 98.8554 98.5698 32.9387 179.592 32.9387H620.408C701.43 32.9387 767.347 98.8554 767.347 179.877V392.122Z" fill="white"/>
<path d="M528.728 270.929L332.81 189.296C327.773 187.197 322.016 187.753 317.474 190.784C312.932 193.811 310.204 198.909 310.204 204.367V367.633C310.204 373.092 312.932 378.189 317.474 381.216C320.196 383.032 323.354 383.959 326.532 383.959C328.656 383.959 330.79 383.544 332.81 382.704L528.728 301.071C534.813 298.535 538.776 292.591 538.776 286C538.776 279.409 534.811 273.464 528.728 270.929ZM342.857 343.143V228.857L480 286L342.857 343.143Z" fill="white"/>
</svg>
